<?xml version="1.0" standalone="no"?>
<!DOCTYPE svg PUBLIC "-//W3C//DTD SVG 20010904//EN"
 "http://www.w3.org/TR/2001/REC-SVG-20010904/DTD/svg10.dtd">
<svg version="1.0" xmlns="http://www.w3.org/2000/svg"
 width="1000.000000pt" height="629.000000pt" viewBox="0 0 1000.000000 629.000000"
 preserveAspectRatio="xMidYMid meet">

<g transform="translate(0.000000,629.000000) scale(0.100000,-0.100000)"
fill="#000000" stroke="none">
<path d="M1850 4547 c-47 -88 -108 -204 -136 -256 -28 -53 -116 -220 -196
-371 -80 -151 -199 -374 -263 -495 -111 -207 -168 -315 -495 -930 -73 -137
-151 -283 -172 -322 l-39 -73 150 -224 c138 -206 152 -224 183 -229 188 -30
292 -48 312 -53 22 -5 25 -2 35 48 6 29 32 142 58 250 l48 198 530 0 530 0 38
-213 c21 -116 38 -223 37 -237 0 -49 2 -50 220 -24 113 13 215 26 227 30 19 5
154 152 355 385 l57 65 -123 230 c-67 126 -191 360 -276 519 -84 160 -192 362
-240 450 -48 88 -143 266 -212 395 -69 129 -179 336 -245 460 -66 124 -155
293 -198 375 -43 83 -83 157 -89 167 -10 14 -26 -10 -96 -145z"/>
<path d="M5870 3881 c-109 -36 -168 -107 -191 -235 -14 -76 -2 -172 31 -236
25 -48 93 -107 139 -120 130 -36 247 17 304 138 75 161 29 359 -101 430 -46
26 -139 37 -182 23z m155 -30 c46 -21 74 -50 104 -105 91 -173 12 -407 -150
-446 -105 -25 -195 24 -250 136 -27 55 -32 77 -33 137 0 127 53 234 135 275
55 28 138 29 194 3z"/>
<path d="M7364 3879 c-18 -5 -46 -25 -63 -44 -27 -31 -31 -43 -31 -92 0 -53 2
-59 43 -97 23 -23 60 -47 82 -55 97 -33 145 -85 145 -156 0 -45 -27 -96 -64
-120 -39 -26 -168 -21 -204 8 -15 12 -30 1 -16 -12 38 -35 158 -41 218 -11 62
31 81 63 81 137 0 83 -19 106 -140 168 -108 56 -124 74 -125 147 0 39 5 54 29
80 28 32 32 33 103 33 40 0 81 -4 91 -9 11 -5 17 -4 17 2 0 26 -106 39 -166
21z"/>
<path d="M4415 3870 c-7 -11 -43 -107 -150 -400 -29 -80 -56 -153 -60 -162 -4
-10 -3 -18 2 -18 6 0 27 46 48 103 21 56 43 105 49 109 20 14 233 9 243 -4 6
-7 26 -56 46 -108 19 -52 40 -96 46 -98 6 -2 0 26 -15 65 -14 37 -50 136 -80
218 -109 301 -116 316 -129 295z m46 -126 c14 -43 38 -109 52 -146 14 -36 23
-69 20 -72 -4 -3 -55 -6 -115 -6 -82 0 -108 3 -108 13 0 7 20 62 44 122 24 61
47 125 51 143 4 18 12 31 18 29 6 -2 23 -39 38 -83z"/>
<path d="M4756 3867 c-5 -10 -6 -111 -4 -225 5 -231 15 -272 77 -324 59 -50
173 -51 237 -3 70 53 78 90 82 343 3 145 0 222 -6 222 -7 0 -12 -81 -14 -222
-3 -210 -4 -226 -26 -270 -37 -75 -83 -95 -204 -89 -28 2 -80 53 -102 101 -18
40 -21 70 -26 265 -3 133 -9 213 -14 202z"/>
<path d="M5220 3870 c0 -6 40 -10 100 -10 l100 0 0 -286 c0 -224 3 -285 13
-281 9 3 12 70 14 283 l2 279 96 3 c52 1 95 7 95 12 0 6 -82 10 -210 10 -133
0 -210 -4 -210 -10z"/>
<path d="M6328 3873 c-17 -4 -18 -27 -18 -293 l0 -289 36 -7 c55 -10 175 3
237 26 57 21 117 72 141 118 24 46 39 143 32 207 -12 121 -74 198 -182 231
-44 13 -205 18 -246 7z m280 -40 c100 -50 147 -166 123 -304 -18 -97 -58 -154
-135 -194 -53 -27 -71 -30 -163 -33 l-103 -4 0 280 0 281 28 4 c15 3 64 4 110
2 66 -3 95 -10 140 -32z"/>
<path d="M6875 3867 c-3 -7 -4 -138 -3 -292 l3 -280 150 -3 c99 -2 146 1 140
7 -6 6 -68 12 -138 13 l-128 3 0 135 0 135 120 3 c159 3 161 22 3 22 -65 0
-121 2 -123 4 -2 2 -3 59 -1 125 l3 121 125 0 c76 0 124 4 124 10 0 16 -269
13 -275 -3z"/>
<path d="M7690 3585 c0 -190 4 -295 10 -295 6 0 10 48 10 125 0 69 2 125 5
125 3 0 65 -51 138 -113 161 -137 166 -141 172 -135 3 2 -63 62 -145 133 -83
71 -150 131 -150 134 0 4 63 75 140 158 77 84 140 155 140 158 0 17 -29 -11
-149 -145 -74 -83 -138 -150 -143 -150 -4 0 -8 68 -8 150 0 93 -4 150 -10 150
-6 0 -10 -105 -10 -295z"/>
<path d="M9231 3089 c-81 -24 -131 -92 -131 -179 0 -93 50 -157 143 -181 89
-24 177 27 217 126 l22 55 -21 54 c-22 53 -56 94 -96 114 -33 16 -98 21 -134
11z m135 -38 c77 -47 99 -151 50 -229 -72 -114 -216 -101 -280 25 -33 66 -5
154 63 200 44 29 122 31 167 4z"/>
<path d="M9210 2915 c0 -87 3 -105 15 -105 11 0 15 12 15 44 0 25 4 48 10 51
17 11 49 -15 70 -55 20 -40 40 -53 40 -26 0 7 -11 30 -26 51 -25 37 -25 37 -5
52 28 19 27 58 -1 77 -13 9 -43 16 -70 16 l-48 0 0 -105z m105 69 c21 -21 15
-36 -19 -52 -39 -19 -56 -9 -56 33 0 32 2 35 29 35 16 0 37 -7 46 -16z"/>
<path d="M5975 3042 c-98 -34 -146 -88 -179 -201 -48 -163 17 -357 138 -412
47 -21 148 -25 207 -8 56 17 106 63 142 133 30 58 32 66 32 176 0 100 -3 122
-24 167 -31 69 -95 127 -162 147 -66 20 -92 20 -154 -2z m153 -56 c75 -39 122
-137 122 -254 0 -87 -22 -163 -62 -208 -41 -46 -77 -64 -133 -64 -134 0 -213
114 -203 295 5 102 34 166 96 212 37 28 52 33 98 33 30 0 67 -6 82 -14z"/>
<path d="M6635 3046 c-163 -39 -242 -157 -233 -345 9 -196 110 -292 302 -290
109 1 130 8 134 43 3 25 1 27 -20 19 -13 -4 -64 -8 -115 -8 -85 0 -94 2 -135
30 -65 45 -101 123 -101 223 -1 105 22 169 78 221 23 22 61 45 82 51 34 10
129 10 188 -1 15 -3 21 2 23 22 3 24 -1 27 -54 38 -69 13 -84 13 -149 -3z"/>
<path d="M4406 3036 c-11 -10 -209 -594 -207 -613 1 -5 13 -8 29 -8 26 0 29 5
61 103 l33 103 116 -3 115 -3 35 -102 c32 -99 35 -103 63 -103 16 0 29 5 29
12 0 14 -187 588 -198 608 -10 17 -57 21 -76 6z m44 -80 c0 -8 18 -72 40 -142
22 -71 40 -132 40 -136 0 -5 -43 -8 -96 -8 -73 0 -95 3 -92 13 15 40 69 209
78 245 10 40 30 58 30 28z"/>
<path d="M7123 3041 c-7 -5 -203 -588 -207 -616 0 -5 12 -10 28 -10 27 0 30 5
65 104 l36 104 110 -2 c60 -1 112 -5 115 -7 3 -3 19 -49 35 -102 30 -95 31
-97 63 -100 17 -2 32 1 32 6 0 19 -201 622 -208 623 -34 5 -62 5 -69 0z m47
-97 c0 -8 18 -70 40 -138 22 -67 40 -126 40 -129 0 -4 -43 -7 -95 -7 -52 0
-95 3 -95 6 0 4 19 66 41 138 23 72 43 137 45 144 5 17 24 6 24 -14z"/>
<path d="M7538 3043 l-28 -4 0 -309 c0 -271 2 -309 16 -314 25 -10 156 -7 219
5 107 20 174 70 217 164 19 42 23 67 23 155 0 95 -3 110 -28 162 -50 102 -126
140 -287 143 -58 1 -117 0 -132 -2z m279 -79 c71 -43 103 -111 103 -219 0
-102 -20 -162 -70 -214 -48 -50 -121 -73 -212 -69 l-63 3 -3 259 c-2 201 1
262 10 268 7 5 52 7 100 5 75 -3 93 -7 135 -33z"/>
<path d="M4790 2816 c0 -179 3 -234 16 -274 30 -92 89 -132 194 -132 103 0
157 32 196 115 23 48 24 59 24 283 l0 232 -29 0 -30 0 -3 -232 c-3 -220 -4
-235 -26 -275 -27 -51 -65 -73 -127 -73 -66 0 -103 23 -128 78 -20 43 -22 68
-25 275 l-4 227 -29 0 -29 0 0 -224z"/>
<path d="M5297 3021 c-3 -11 -2 -22 1 -25 3 -3 47 -6 99 -6 l93 0 0 -291 0
-290 28 3 27 3 3 288 2 287 95 0 c95 0 95 0 95 25 l0 25 -219 0 c-208 0 -219
-1 -224 -19z"/>
<path d="M8320 2726 l0 -316 166 0 165 0 -3 28 -3 27 -127 3 -128 3 -2 282 -3
282 -32 3 -33 3 0 -315z"/>
<path d="M8604 3025 c-15 -37 2 -45 96 -45 l90 0 0 -285 0 -285 35 0 35 0 0
285 0 285 95 0 95 0 0 30 0 30 -220 0 c-187 0 -222 -2 -226 -15z"/>
</g>
</svg>
