<?xml version="1.0" standalone="no"?>
<!DOCTYPE svg PUBLIC "-//W3C//DTD SVG 20010904//EN"
 "http://www.w3.org/TR/2001/REC-SVG-20010904/DTD/svg10.dtd">
<svg version="1.0" xmlns="http://www.w3.org/2000/svg"
 width="382.000000pt" height="94.000000pt" viewBox="0 0 382.000000 94.000000"
 preserveAspectRatio="xMidYMid meet">

<g transform="translate(0.000000,94.000000) scale(0.100000,-0.100000)"
fill="#000000" stroke="none">
<path d="M624 915 c-14 -21 -15 -31 -6 -50 7 -14 18 -25 26 -25 15 0 26 -21
26 -50 0 -10 -17 -32 -37 -49 l-38 -31 -7 22 c-3 13 -6 42 -7 66 -1 34 -7 50
-31 74 -28 27 -35 30 -73 24 -129 -21 -309 -153 -402 -296 -56 -88 -69 -122
-69 -194 -1 -123 63 -188 188 -194 61 -3 75 -1 99 18 36 29 34 57 -9 113 -51
65 -104 62 -104 -5 0 -31 25 -49 62 -45 15 1 23 -3 23 -13 0 -24 -101 -25
-144 -2 -168 91 -3 407 284 543 65 31 94 36 113 17 16 -16 15 -63 -2 -77 -34
-29 -17 -91 26 -91 14 0 18 -5 14 -16 -3 -9 -9 -33 -12 -55 -4 -22 -11 -42
-15 -45 -13 -8 -11 -48 3 -62 20 -20 56 -14 74 13 14 22 14 26 -2 53 -25 43
-12 75 53 137 62 59 61 57 51 178 -5 69 -51 92 -84 42z"/>
<path d="M770 891 c-15 -29 -12 -46 10 -66 12 -11 28 -15 41 -12 69 18 226
-138 221 -219 -4 -58 66 -81 90 -29 11 26 -4 65 -26 65 -7 0 -23 19 -36 43
-40 72 -79 115 -143 157 -34 22 -68 49 -75 60 -16 27 -67 27 -82 1z"/>
<path d="M396 774 c-22 -21 -20 -43 5 -70 l20 -21 -25 -37 c-13 -20 -27 -42
-29 -49 -4 -9 -7 -9 -18 1 -23 22 -57 13 -104 -28 -25 -22 -50 -40 -55 -40 -5
0 -14 -9 -20 -21 -24 -43 43 -92 78 -57 7 7 12 24 12 38 0 15 11 37 25 50 24
22 27 23 42 7 23 -22 32 -96 16 -122 -19 -31 -5 -65 28 -72 36 -7 36 -13 3
-44 -57 -53 -71 -136 -34 -196 57 -94 182 -82 427 40 73 37 136 60 193 72 100
21 153 45 177 82 21 31 29 189 11 210 -30 37 -102 -12 -79 -55 5 -10 17 -24
25 -32 18 -14 21 -62 6 -91 -15 -28 -57 -46 -159 -69 -60 -13 -127 -38 -194
-71 -207 -105 -309 -125 -357 -74 -31 33 -31 82 -1 126 64 92 316 230 390 214
22 -5 35 -1 50 14 25 25 26 44 5 65 -21 22 -60 20 -76 -3 -7 -10 -45 -31 -83
-46 -90 -36 -140 -61 -192 -96 -47 -33 -55 -35 -47 -15 3 7 -5 32 -17 55 -20
38 -21 47 -10 99 6 31 22 72 35 92 32 47 43 122 21 144 -21 20 -49 21 -69 0z"/>
<path d="M741 723 c-37 -36 -66 -115 -52 -141 14 -26 45 -33 70 -15 25 17 27
50 4 75 -15 17 -15 19 2 38 27 30 71 24 67 -8 -4 -27 23 -62 48 -62 50 0 64
81 17 99 -13 5 -29 16 -36 25 -22 27 -86 21 -120 -11z"/>
<path d="M3187 714 c-4 -4 -7 -43 -7 -86 0 -75 -1 -78 -19 -68 -53 28 -129 1
-156 -56 -47 -100 57 -209 154 -161 17 9 29 11 26 6 -4 -5 14 -9 40 -9 l45 0
-2 188 -3 187 -35 3 c-20 2 -39 0 -43 -4z m-11 -239 c15 -23 15 -27 0 -50 -28
-43 -96 -26 -96 23 0 35 17 52 52 52 18 0 33 -8 44 -25z"/>
<path d="M3332 688 c-18 -18 -15 -43 8 -63 17 -15 24 -16 45 -7 43 20 28 82
-20 82 -12 0 -26 -5 -33 -12z"/>
<path d="M1296 672 c-3 -3 -6 -79 -6 -169 l0 -163 94 0 c80 0 98 3 127 23 52
35 79 82 79 139 0 113 -82 179 -219 177 -38 -1 -72 -4 -75 -7z m179 -97 c19
-18 25 -35 25 -68 0 -58 -34 -97 -85 -97 l-35 0 0 95 0 95 35 0 c25 0 44 -8
60 -25z"/>
<path d="M1714 671 c-33 -14 -64 -60 -64 -96 0 -43 33 -82 78 -95 57 -15 80
-35 66 -57 -15 -24 -48 -28 -86 -9 -39 20 -35 21 -53 -14 -19 -38 -14 -46 33
-60 111 -30 202 17 202 105 0 54 -24 80 -100 105 -47 16 -57 35 -28 54 13 8
26 7 47 -1 27 -10 32 -8 46 13 8 13 15 27 15 32 0 24 -113 41 -156 23z"/>
<path d="M1950 510 l0 -170 43 0 42 0 0 168 0 167 -43 2 -42 3 0 -170z"/>
<path d="M2305 666 c-45 -19 -69 -88 -49 -141 7 -17 53 -44 86 -50 52 -10 66
-60 21 -71 -17 -5 -37 -1 -56 9 -16 10 -32 17 -37 17 -11 0 -33 -57 -26 -69
11 -18 89 -33 135 -27 54 7 88 36 101 87 18 65 -5 98 -87 128 -35 12 -48 22
-48 36 0 15 8 21 29 23 16 2 33 -1 39 -7 17 -17 25 -13 42 19 20 38 20 36 -16
49 -42 15 -97 13 -134 -3z"/>
<path d="M2547 634 c-4 -4 -7 -20 -7 -36 0 -15 -4 -28 -10 -28 -5 0 -10 -16
-10 -35 0 -19 5 -35 10 -35 6 0 10 -33 10 -80 l0 -80 43 0 42 0 -3 80 -4 80
26 0 c23 0 26 4 26 35 0 31 -3 35 -26 35 -23 0 -25 3 -22 33 3 30 1 32 -32 35
-20 2 -39 0 -43 -4z"/>
<path d="M900 600 c-26 -26 -25 -45 2 -72 41 -41 -9 -78 -189 -138 -70 -23
-144 -50 -163 -60 -35 -18 -91 -70 -75 -70 4 0 0 -9 -9 -19 -23 -26 -17 -63
13 -78 47 -23 82 18 57 67 -13 28 -13 28 33 53 25 14 97 41 159 61 190 61 225
86 244 181 11 55 10 59 -11 77 -29 23 -36 23 -61 -2z"/>
<path d="M2700 481 c0 -79 3 -93 23 -116 46 -54 194 -41 217 20 6 15 10 62 10
106 l0 79 -40 0 -40 0 0 -66 c0 -76 -12 -104 -43 -104 -38 0 -47 19 -47 97 l0
73 -40 0 -40 0 0 -89z"/>
<path d="M3327 563 c-3 -4 -5 -56 -5 -115 l-1 -108 42 0 42 0 -2 112 -2 113
-35 3 c-19 2 -36 -1 -39 -5z"/>
<path d="M3513 550 c-56 -34 -71 -96 -38 -159 31 -60 144 -80 210 -37 66 43
66 141 1 191 -42 32 -125 35 -173 5z m125 -62 c29 -29 2 -88 -40 -88 -27 0
-58 28 -58 51 0 40 69 66 98 37z"/>
</g>
</svg>
