<?xml version="1.0" standalone="no"?>
<!DOCTYPE svg PUBLIC "-//W3C//DTD SVG 20010904//EN"
 "http://www.w3.org/TR/2001/REC-SVG-20010904/DTD/svg10.dtd">
<svg version="1.0" xmlns="http://www.w3.org/2000/svg"
 width="215.000000pt" height="160.000000pt" viewBox="0 0 215.000000 160.000000"
 preserveAspectRatio="xMidYMid meet">

<g transform="translate(0.000000,160.000000) scale(0.100000,-0.100000)"
fill="#000000" stroke="none">
<path d="M810 1596 c0 -2 7 -7 16 -10 8 -3 12 -2 9 4 -6 10 -25 14 -25 6z"/>
<path d="M1170 1590 c0 -5 5 -10 10 -10 6 0 10 5 10 10 0 6 -4 10 -10 10 -5 0
-10 -4 -10 -10z"/>
<path d="M1210 1586 c0 -8 8 -17 18 -19 9 -3 -90 -5 -221 -5 -145 -1 -235 3
-232 9 4 5 -1 9 -10 9 -9 0 -13 -4 -10 -10 4 -7 -112 -10 -339 -10 -339 0
-346 0 -346 -20 0 -34 -38 -25 -54 13 -13 28 -14 -13 -15 -364 -1 -352 1 -398
15 -403 8 -3 24 -1 35 4 29 16 23 3 -18 -37 -26 -24 -34 -38 -25 -41 8 -2 19
1 25 7 6 6 16 11 21 11 6 0 5 -5 -2 -12 -7 -7 -8 -17 -1 -30 7 -14 6 -18 -6
-18 -20 0 -19 -16 3 -32 16 -11 19 -30 21 -152 1 -121 0 -138 -14 -133 -8 4
-15 2 -15 -4 0 -5 7 -12 15 -15 11 -5 14 -21 14 -63 -1 -31 -1 -87 0 -126 l1
-70 583 2 c320 1 772 2 1005 2 l422 1 2 263 c1 163 4 226 7 167 5 -79 9 -95
23 -98 9 -1 22 7 28 18 12 22 1 27 -18 8 -6 -6 -15 -9 -19 -5 -4 4 -1 13 5 19
7 7 12 24 12 40 0 20 4 26 15 22 12 -5 15 3 15 38 0 35 -6 50 -25 68 -14 13
-23 30 -21 37 3 7 1 15 -4 18 -5 3 -11 -3 -13 -12 -3 -10 -4 86 -4 212 1 127
2 199 4 160 4 -90 12 -135 23 -135 6 0 10 7 10 15 0 8 6 15 13 15 6 0 13 11
13 25 2 20 -1 23 -11 15 -9 -8 -12 -1 -10 30 2 35 1 38 -11 23 -12 -17 -13
-17 -14 4 0 12 5 23 10 25 6 2 12 13 12 25 1 12 7 19 15 16 18 -7 16 12 -2 27
-19 16 -20 34 -1 27 19 -8 22 150 4 176 -18 24 -46 12 -51 -21 -2 -15 -5 37
-6 116 l-1 142 -345 0 c-269 0 -345 3 -345 13 0 8 -4 7 -10 -3 -9 -13 -13 -11
-30 10 -19 23 -21 24 -31 7 -8 -14 -14 -16 -25 -6 -11 9 -15 8 -20 -5 -3 -9
-11 -16 -17 -16 -6 0 -7 3 -4 7 9 9 -12 33 -29 33 -8 0 -14 -6 -14 -14z m856
-52 c-3 -9 -6 -55 -6 -102 -1 -62 -3 -82 -10 -70 -6 9 -24 19 -41 23 -16 4
-35 15 -42 26 -6 10 -21 20 -32 20 -18 1 -18 2 -2 6 14 4 8 10 -26 28 -33 18
-60 24 -107 24 -34 0 -67 4 -73 10 -14 14 -74 14 -79 0 -2 -7 -9 -5 -18 6 -13
16 -9 17 62 14 42 -2 80 0 84 4 4 4 -31 7 -78 7 -59 0 -88 -4 -92 -12 -5 -10
-7 -10 -12 0 -3 6 -13 12 -22 12 -16 -1 -16 -2 0 -14 10 -7 14 -16 10 -21 -4
-4 3 -4 15 -1 19 6 23 2 32 -32 13 -45 40 -53 42 -13 2 22 2 23 6 5 3 -16 9
-20 24 -17 20 5 27 23 9 23 -5 0 -10 5 -10 10 0 14 26 12 38 -2 13 -17 1 -100
-15 -106 -8 -2 -13 6 -13 20 0 19 -6 24 -30 26 -21 2 -30 -2 -30 -13 0 -8 5
-15 11 -15 5 0 8 -4 5 -9 -3 -5 1 -14 9 -21 8 -7 15 -17 15 -22 0 -16 83 -88
101 -88 19 0 35 -29 16 -31 -7 -1 -1 -4 12 -8 14 -4 27 -13 29 -21 5 -13 3
-13 -11 -1 -25 20 -21 -1 4 -22 13 -12 19 -13 18 -5 -5 42 2 78 16 78 11 0 14
-7 9 -24 -4 -16 -1 -25 10 -29 11 -4 14 -19 12 -56 -1 -27 2 -47 6 -45 4 3 8
-2 8 -10 0 -9 8 -16 17 -16 14 0 14 -3 -4 -19 -19 -18 -22 -35 -14 -95 1 -4
11 -6 24 -3 21 6 21 6 3 -8 -18 -14 -18 -15 -2 -15 10 0 14 -5 10 -11 -3 -6 0
-15 7 -20 11 -7 11 -11 2 -17 -8 -5 -9 -13 -3 -22 15 -24 11 -37 -5 -16 -8 11
-18 17 -21 13 -3 -3 6 -17 22 -32 15 -14 29 -37 30 -50 3 -29 3 -29 -40 -11
-34 14 -35 14 -46 -14 -7 -16 -9 -38 -5 -49 4 -13 2 -21 -5 -21 -7 0 -14 8
-17 19 -3 12 -11 17 -23 14 -10 -3 -21 0 -24 5 -3 6 7 13 24 17 22 5 32 14 38
38 22 78 -13 195 -66 227 -30 18 -30 18 -37 -3 -6 -20 -7 -20 -13 -4 -7 17
-10 16 -35 -7 -15 -14 -27 -21 -27 -16 0 6 -8 10 -17 10 -15 0 -14 2 3 15 10
8 27 15 37 15 9 0 17 5 17 10 0 6 10 10 21 10 20 0 21 4 14 38 -4 20 -8 49 -9
65 0 15 -6 27 -13 27 -7 0 -10 7 -6 16 4 12 0 15 -18 12 -13 -2 -30 4 -37 12
-10 11 -15 12 -18 3 -4 -8 -13 -9 -30 -3 -17 7 -24 6 -24 -3 0 -8 -3 -7 -9 3
-6 8 -8 17 -5 21 2 4 0 10 -6 14 -5 3 -10 -3 -10 -14 0 -32 -11 -51 -30 -51
-27 0 -32 -51 -28 -310 3 -203 5 -228 23 -257 13 -23 25 -31 36 -28 10 3 43 7
75 9 41 2 61 8 71 22 7 10 13 12 13 6 0 -7 14 -12 30 -12 23 0 33 6 39 23 12
31 37 51 46 37 4 -6 1 -17 -5 -25 -6 -8 -8 -20 -4 -26 4 -8 3 -9 -4 -5 -15 9
-15 -4 -2 -39 9 -23 8 -26 -7 -23 -12 3 -17 12 -16 26 3 26 4 26 -36 6 -28
-14 -32 -21 -29 -45 4 -25 1 -29 -26 -34 -17 -3 -82 -5 -145 -3 l-114 3 -4
255 c-5 379 -9 420 -42 420 -21 0 -41 19 -41 40 0 25 -37 91 -60 107 -26 19
-25 12 5 -33 33 -48 46 -99 51 -198 4 -82 -7 -89 -20 -11 -13 77 -59 208 -83
234 l-23 26 11 -30 c6 -16 16 -40 21 -51 16 -35 15 -129 -1 -129 -16 0 -43 80
-38 113 3 12 0 22 -5 22 -5 0 -18 16 -30 35 -26 45 -36 37 -15 -12 8 -21 18
-58 22 -82 5 -36 3 -42 -10 -38 -32 13 -43 -2 -33 -43 17 -67 -4 -92 -34 -41
-35 63 -161 63 -193 0 -12 -23 -13 -37 -6 -67 15 -53 34 -77 101 -122 59 -40
105 -96 129 -157 20 -48 11 -166 -14 -194 -34 -38 -101 -61 -179 -62 -84 0
-112 12 -121 53 -9 39 -21 46 -29 15 -9 -37 -27 -30 -20 8 3 17 7 50 9 72 1
22 7 40 14 39 6 -1 17 -2 25 -2 7 -1 16 -14 19 -29 8 -40 62 -73 118 -73 59 0
98 25 114 74 20 57 1 96 -67 140 -59 37 -117 97 -145 148 -13 24 -18 56 -18
116 0 88 -8 91 -40 17 l-13 -29 -10 39 c-6 22 -13 52 -16 67 -6 28 -25 43 -61
49 -41 8 -47 39 -7 39 21 0 24 -2 12 -10 -11 -8 -9 -9 11 -5 29 7 40 -3 68
-60 l18 -37 23 32 23 32 -31 31 c-26 26 -41 31 -89 35 -49 3 -61 1 -77 -17
-18 -20 -18 -21 -1 -21 14 0 15 -3 5 -15 -7 -8 -20 -15 -29 -15 -14 0 -14 -2
-1 -10 10 -6 11 -10 3 -10 -7 0 -13 -5 -13 -11 0 -5 4 -8 9 -5 5 3 12 -1 15
-10 10 -25 7 -32 -11 -29 -10 2 -59 6 -110 9 l-92 6 -18 -38 c-23 -48 -23
-103 1 -173 l19 -57 -23 -53 c-20 -44 -24 -71 -25 -149 0 -52 2 -106 5 -120 5
-24 3 -25 -40 -25 -35 0 -44 3 -42 15 20 85 32 586 16 643 -3 10 -15 17 -29
17 -30 0 -55 10 -55 21 0 5 25 9 55 9 42 0 55 3 55 15 0 8 5 15 10 15 23 0 7
21 -20 27 -17 3 -35 14 -41 24 -12 23 -29 25 -29 3 0 -8 -4 -13 -8 -10 -5 3
-7 19 -4 36 4 29 6 30 26 16 20 -13 24 -12 35 5 6 11 24 24 39 30 l27 11 -26
13 c-15 8 -29 21 -33 30 -8 21 -26 19 -26 -4 0 -17 -4 -15 -31 10 -17 16 -37
29 -43 29 -7 0 -23 12 -35 26 -23 26 -43 28 -93 9 -10 -4 -18 -3 -18 3 0 5 10
13 23 17 22 7 22 7 -5 18 -16 6 -28 14 -28 19 0 4 -6 8 -12 8 -17 0 -24 -715
-8 -725 6 -4 8 -21 4 -42 -4 -19 -3 -38 2 -42 16 -11 31 -46 26 -60 -3 -10 -8
-7 -18 10 -11 22 -12 19 -12 -36 1 -43 6 -65 18 -77 10 -9 20 -22 22 -28 5
-15 41 -20 51 -6 5 7 11 6 17 -6 6 -9 17 -15 25 -12 24 10 17 -10 -7 -21 -36
-16 -29 -40 9 -39 18 1 30 -2 27 -7 -3 -5 2 -9 10 -9 15 0 13 22 -5 46 -11 14
-1 24 23 24 19 0 25 -24 8 -35 -5 -3 -7 -12 -4 -19 4 -10 16 -11 52 -4 41 8
112 4 112 -7 0 -2 3 -11 6 -19 5 -12 2 -15 -12 -9 -12 4 -15 3 -10 -5 11 -18
30 -14 44 8 10 17 10 20 -5 20 -13 0 -12 4 7 13 17 9 27 10 32 3 13 -19 9 -33
-15 -45 -20 -10 -19 -11 12 -6 31 5 33 3 29 -20 -3 -13 -2 -26 2 -27 12 -5 21
-58 10 -58 -5 0 -10 7 -10 15 0 8 -7 15 -16 15 -13 0 -15 7 -10 31 5 26 3 30
-10 25 -9 -3 -21 -6 -27 -6 -6 0 -2 -6 8 -14 16 -12 18 -19 9 -43 -9 -24 -14
-28 -44 -25 -27 3 -32 1 -23 -10 9 -10 5 -13 -18 -15 -15 -1 -31 2 -34 7 -4 6
0 10 7 10 10 0 9 3 -2 10 -21 13 -44 -8 -29 -26 6 -8 17 -14 24 -14 8 0 11 -8
8 -19 -4 -16 -1 -19 15 -14 11 3 29 0 39 -6 17 -10 16 -10 -4 -11 -13 0 -23
-4 -23 -10 0 -12 70 -4 84 10 5 5 14 10 19 10 5 0 2 -7 -7 -15 -8 -8 -21 -15
-29 -15 -8 0 -25 -15 -36 -32 -12 -18 -21 -26 -20 -18 3 29 -1 41 -11 35 -6
-4 -8 -11 -5 -16 13 -20 -12 -7 -40 22 -16 17 -31 25 -33 20 -2 -6 -8 -9 -13
-6 -5 4 0 15 11 27 11 12 16 26 13 31 -4 6 -10 2 -14 -9 -6 -17 -8 -17 -14 -2
-16 40 -75 32 -74 -10 0 -24 1 -25 10 -7 9 20 9 20 6 0 -1 -11 -11 -21 -21
-23 -14 -3 -17 0 -13 12 9 22 -10 30 -22 9 -8 -15 -12 -16 -23 -4 -11 11 -11
14 1 19 9 3 4 9 -15 16 -19 8 -24 15 -16 20 7 4 12 2 12 -3 0 -6 5 -11 11 -11
8 0 8 4 0 14 -14 16 -54 29 -45 14 4 -6 8 -31 10 -56 1 -26 7 -48 13 -50 6 -2
6 -13 -1 -32 -8 -26 -12 -28 -29 -17 -25 16 -24 31 1 24 11 -3 20 -1 20 4 0 5
-12 9 -26 9 -25 0 -26 -2 -20 -35 6 -28 4 -35 -9 -35 -13 0 -15 78 -15 730 l0
730 996 0 c904 0 996 -1 990 -16z m-2003 -77 c4 3 7 -1 7 -10 0 -21 -7 -21
-26 -3 -18 18 -19 32 -1 17 8 -6 17 -8 20 -4z m222 -57 c3 -5 -1 -10 -10 -10
-9 0 -13 5 -10 10 3 6 8 10 10 10 2 0 7 -4 10 -10z m1415 -20 c0 -5 -5 -10
-11 -10 -5 0 -7 5 -4 10 3 6 8 10 11 10 2 0 4 -4 4 -10z m-1320 -20 c0 -19
-11 -26 -23 -14 -8 8 3 34 14 34 5 0 9 -9 9 -20z m1390 0 c0 -5 -2 -10 -4 -10
-3 0 -8 5 -11 10 -3 6 -1 10 4 10 6 0 11 -4 11 -10z m70 -60 c0 -5 -2 -10 -4
-10 -3 0 -8 5 -11 10 -3 6 -1 10 4 10 6 0 11 -4 11 -10z m253 -74 c-5 -43 -5
-44 23 -38 17 3 25 1 21 -4 -8 -9 -12 -10 -39 -13 -10 -1 -10 -3 -2 -9 9 -5 8
-11 -2 -20 -12 -11 -14 -2 -14 58 0 38 4 70 9 70 5 0 6 -20 4 -44z m-1743 -8
c0 -5 -4 -8 -10 -8 -5 0 -10 10 -10 23 0 18 2 19 10 7 5 -8 10 -18 10 -22z
m1610 -9 c0 -5 -4 -9 -10 -9 -5 0 -10 7 -10 16 0 8 5 12 10 9 6 -3 10 -10 10
-16z m-1580 1 c0 -5 -4 -10 -10 -10 -5 0 -10 5 -10 10 0 6 5 10 10 10 6 0 10
-4 10 -10z m1298 -115 c-1 -24 4 -51 11 -59 7 -8 10 -20 6 -26 -9 -15 -30 9
-44 53 -11 34 -11 41 5 58 9 10 18 19 20 19 1 0 2 -20 2 -45z m377 -4 c-3 -6
-11 -11 -16 -11 -5 0 -4 6 3 14 14 16 24 13 13 -3z m-1275 -12 c7 -11 9 -28 6
-36 -8 -20 -14 -14 -26 26 -10 35 3 42 20 10z m-650 -10 c0 -6 -4 -7 -10 -4
-5 3 -10 11 -10 16 0 6 5 7 10 4 6 -3 10 -11 10 -16z m1620 6 c8 -9 8 -15 0
-20 -5 -3 -10 -18 -10 -31 0 -16 -5 -24 -12 -21 -8 2 -12 16 -10 31 3 21 0 26
-10 21 -7 -5 -10 -5 -6 0 4 4 3 14 -2 20 -8 9 -4 13 15 13 13 0 29 -6 35 -13z
m256 -12 c-10 -10 -19 5 -10 18 6 11 8 11 12 0 2 -7 1 -15 -2 -18z m-926 -28
c0 -17 -2 -17 -10 -5 -5 8 -10 24 -10 35 0 17 2 17 10 5 5 -8 10 -24 10 -35z
m160 14 c0 -16 -4 -28 -9 -25 -8 5 -3 56 5 56 2 0 4 -14 4 -31z m78 -20 c2
-49 -11 -37 -22 19 -4 24 -2 32 7 30 6 -3 13 -24 15 -49z m-41 -9 c13 -49 7
-52 -13 -5 -16 40 -17 45 -6 45 4 0 13 -18 19 -40z m111 -58 c9 9 12 4 12 -25
0 -20 -4 -37 -10 -37 -5 0 -10 5 -10 12 0 6 -3 8 -7 5 -3 -4 0 -18 7 -32 15
-28 9 -41 -16 -31 -14 5 -16 16 -10 70 4 40 3 67 -4 71 -5 3 -10 21 -9 38 0
27 3 23 18 -26 13 -46 19 -55 29 -45z m-708 78 c0 -5 7 -10 16 -10 13 0 14 -3
5 -14 -9 -10 -8 -16 4 -26 8 -7 15 -22 14 -34 -1 -18 -3 -17 -12 6 -6 16 -18
30 -26 33 -9 3 -29 16 -45 30 l-29 25 36 0 c21 0 37 -4 37 -10z m315 1 c3 -5
1 -12 -5 -16 -5 -3 -10 1 -10 9 0 18 6 21 15 7z m981 -7 c-3 -9 -6 -18 -6 -20
0 -2 -4 -4 -9 -4 -5 0 -7 9 -4 20 3 11 10 20 15 20 6 0 7 -7 4 -16z m-936 -34
c0 -13 -1 -13 -10 0 -5 8 -10 22 -10 30 0 13 1 13 10 0 5 -8 10 -22 10 -30z
m80 14 c0 -8 -4 -12 -10 -9 -5 3 -10 13 -10 21 0 8 5 12 10 9 6 -3 10 -13 10
-21z m-333 -51 c-3 -10 -5 -4 -5 12 0 17 2 24 5 18 2 -7 2 -21 0 -30z m1221
17 c7 -12 8 -20 2 -20 -5 0 -10 5 -10 10 0 6 -7 10 -16 10 -8 0 -12 5 -9 10 9
15 19 12 33 -10z m42 10 c13 -8 13 -10 -2 -10 -9 0 -20 5 -23 10 -8 13 5 13
25 0z m-902 -79 c-3 -34 -5 -38 -21 -29 -14 7 -16 16 -11 46 4 20 9 41 12 46
10 17 23 -24 20 -63z m-71 15 c-8 -20 -37 -10 -37 13 0 10 3 21 7 25 11 11 36
-21 30 -38z m151 35 c11 -7 11 -14 -1 -44 -9 -20 -13 -45 -10 -56 10 -38 -16
-22 -27 17 -8 26 -8 45 -1 65 11 29 18 32 39 18z m72 -2 c0 -5 5 -7 12 -3 8 5
9 -2 5 -26 -4 -18 -7 -44 -7 -59 0 -27 -35 -61 -38 -38 -1 7 -5 28 -8 47 -6
38 9 90 26 90 5 0 10 -5 10 -11z m366 -26 c-3 -27 -20 -42 -29 -26 -7 11 10
53 22 53 5 0 8 -12 7 -27z m367 5 c25 -12 27 -17 26 -73 -1 -33 -4 -49 -6 -35
-2 14 -7 32 -10 40 -3 8 -7 22 -7 30 -1 8 -9 14 -18 14 -10 -1 -15 2 -12 7 3
5 0 9 -5 9 -6 0 -11 5 -11 10 0 13 10 13 43 -2z m-1973 -30 c0 -12 -10 -9 -26
6 -20 21 -17 28 6 14 11 -7 20 -16 20 -20z m1797 -5 c9 -31 9 -41 -3 -54 -8
-9 -12 -18 -9 -20 2 -3 -9 -6 -25 -7 -23 -2 -30 2 -30 15 0 10 -11 23 -25 29
-21 10 -24 9 -28 -10 -3 -19 -4 -19 -15 6 -8 19 -8 35 -1 50 9 21 9 21 4 -4
-3 -16 -3 -28 0 -28 3 0 10 12 16 28 6 15 13 22 15 16 6 -13 67 -9 72 5 7 21
17 11 29 -26z m-1057 13 c0 -8 -4 -18 -10 -21 -5 -3 -10 -17 -10 -31 0 -14 -4
-23 -10 -19 -10 6 -11 61 -3 78 7 13 33 7 33 -7z m-63 -17 c-1 -10 -5 -15 -10
-12 -13 8 -36 -29 -37 -59 0 -28 -1 -28 -64 -28 -51 0 -65 3 -70 17 -5 11 -1
22 10 30 14 10 8 12 -35 15 -39 2 -48 6 -42 16 6 10 36 13 110 13 75 0 103 3
107 13 7 19 33 15 31 -5z m-510 5 c-3 -3 -12 -4 -19 -1 -8 3 -5 6 6 6 11 1 17
-2 13 -5z m611 -49 c-3 -3 -9 2 -12 12 -6 14 -5 15 5 6 7 -7 10 -15 7 -18z
m1182 15 c0 -5 -2 -10 -4 -10 -3 0 -8 5 -11 10 -3 6 -1 10 4 10 6 0 11 -4 11
-10z m-240 -41 c0 -6 -4 -7 -10 -4 -5 3 -10 11 -10 16 0 6 5 7 10 4 6 -3 10
-11 10 -16z m-1640 -3 c0 -3 -4 -8 -10 -11 -5 -3 -10 -1 -10 4 0 6 5 11 10 11
6 0 10 -2 10 -4z m167 -58 c0 -32 -2 -40 -4 -20 -5 34 -19 40 -55 21 -16 -9
-19 -8 -16 3 3 9 62 48 74 48 1 0 1 -24 1 -52z m1528 32 c3 -5 1 -10 -4 -10
-6 0 -11 5 -11 10 0 6 2 10 4 10 3 0 8 -4 11 -10z m225 -21 c0 -11 -4 -18 -10
-14 -5 3 -7 12 -3 20 7 21 13 19 13 -6z m-1504 -24 c4 -8 9 -13 13 -11 3 2 17
-8 31 -21 l25 -25 -25 7 c-14 4 -28 13 -32 19 -6 8 -8 7 -8 -1 0 -7 9 -17 21
-24 16 -8 18 -14 9 -22 -9 -9 -14 -8 -24 6 -18 24 -25 21 -23 -9 1 -18 -5 -30
-23 -41 -20 -12 -22 -12 -7 0 9 8 17 20 17 27 0 10 -3 10 -15 0 -13 -11 -15
-8 -15 20 0 25 3 31 16 26 10 -4 14 -1 11 6 -2 7 -13 11 -23 10 -15 -3 -16 -1
-7 8 6 7 9 19 6 26 -4 10 3 14 21 14 15 0 29 -7 32 -15z m-353 -31 c-9 -15
-19 -22 -21 -16 -2 6 3 18 10 26 22 25 30 18 11 -10z m1857 -10 c0 -19 -4 -33
-9 -29 -5 3 -8 18 -6 33 4 34 4 32 10 32 3 0 5 -16 5 -36z m-1273 -6 c-3 -8
-6 -5 -6 6 -1 11 2 17 5 13 3 -3 4 -12 1 -19z m65 -10 c-9 -9 -12 -7 -12 12 0
19 3 21 12 12 9 -9 9 -15 0 -24z m1105 26 c-3 -3 -12 -4 -19 -1 -8 3 -5 6 6 6
11 1 17 -2 13 -5z m-1797 -19 c0 -8 -2 -15 -4 -15 -2 0 -6 7 -10 15 -3 8 -1
15 4 15 6 0 10 -7 10 -15z m66 -40 c-2 -7 1 -18 8 -24 7 -6 11 -21 9 -34 -4
-21 -2 -23 31 -19 28 3 36 1 36 -12 0 -13 -12 -16 -75 -15 -41 1 -75 5 -75 10
0 5 13 9 29 9 24 0 28 3 24 20 -3 12 -14 20 -27 21 -11 0 -30 5 -41 10 -15 7
-9 8 23 4 33 -4 42 -2 42 10 0 8 -4 15 -9 15 -5 0 -4 11 2 24 10 20 13 22 20
10 5 -8 6 -21 3 -29z m1083 -25 c-1 -28 -6 -53 -10 -55 -4 -3 -6 19 -4 47 4
61 3 58 10 58 3 0 5 -23 4 -50z m-1003 -38 c-12 -11 -16 6 -9 39 l8 34 3 -33
c2 -19 1 -36 -2 -40z m1454 48 c18 -18 18 -20 3 -20 -14 0 -15 -2 -5 -9 10 -6
8 -10 -9 -14 -28 -7 -39 1 -19 13 9 6 10 10 3 10 -6 0 -9 9 -6 20 3 11 7 20 9
20 2 0 13 -9 24 -20z m-1080 -4 c0 -3 -4 -8 -10 -11 -5 -3 -10 -1 -10 4 0 6 5
11 10 11 6 0 10 -2 10 -4z m4 -40 c-3 -9 -16 -16 -28 -15 -14 0 -16 2 -6 6 8
3 19 12 23 20 11 19 19 11 11 -11z m-544 -1 c7 -8 8 -15 2 -15 -5 0 -15 7 -22
15 -7 8 -8 15 -2 15 5 0 15 -7 22 -15z m850 -9 c0 -3 -4 -8 -10 -11 -5 -3 -10
-1 -10 4 0 6 5 11 10 11 6 0 10 -2 10 -4z m387 -18 c-3 -8 -6 -5 -6 6 -1 11 2
17 5 13 3 -3 4 -12 1 -19z m-710 -44 c-7 -7 -37 7 -37 17 0 6 9 5 21 -1 11 -7
19 -14 16 -16z m638 16 c3 -5 1 -10 -4 -10 -6 0 -11 5 -11 10 0 6 2 10 4 10 3
0 8 -4 11 -10z m695 -11 c0 -6 -4 -7 -10 -4 -5 3 -10 11 -10 16 0 6 5 7 10 4
6 -3 10 -11 10 -16z m-1305 1 c3 -5 1 -10 -4 -10 -6 0 -11 5 -11 10 0 6 2 10
4 10 3 0 8 -4 11 -10z m602 -42 c-3 -7 -5 -2 -5 12 0 14 2 19 5 13 2 -7 2 -19
0 -25z m-80 -20 c-3 -8 -6 -5 -6 6 -1 11 2 17 5 13 3 -3 4 -12 1 -19z m658 12
c3 -5 12 -7 20 -3 8 3 15 0 15 -6 0 -6 -4 -11 -10 -11 -5 0 -10 -12 -11 -27
l-1 -28 -8 25 c-9 28 -11 27 -15 -11 -3 -23 -1 -26 17 -21 12 3 26 -1 32 -9 6
-8 23 -20 39 -26 15 -7 27 -19 27 -27 0 -8 6 -16 13 -19 8 -3 6 -9 -8 -20 -19
-14 -19 -16 -2 -34 21 -24 48 -25 64 -4 10 13 12 8 13 -31 0 -28 -5 -49 -12
-52 -10 -5 -10 -7 0 -12 6 -3 12 -23 12 -45 l0 -39 -174 0 c-148 0 -174 2
-172 15 3 21 16 31 16 12 0 -9 5 -17 10 -17 5 0 9 5 7 11 -1 6 4 14 11 16 7 3
12 -3 12 -14 1 -17 1 -17 11 0 6 9 14 15 20 12 5 -3 17 -1 26 5 16 9 15 10 -4
5 -16 -4 -23 -2 -23 7 0 11 -2 10 -9 0 -6 -10 -10 -7 -15 12 -6 26 -26 37 -26
14 0 -6 -3 -8 -6 -5 -4 4 -1 13 6 22 10 12 8 16 -11 23 -17 7 -19 11 -9 17 9
5 15 4 18 -3 2 -7 10 -12 18 -12 18 0 7 31 -18 48 -17 13 -25 42 -11 42 4 0
21 -14 39 -31 18 -17 34 -26 38 -21 3 6 -10 26 -29 45 -34 34 -44 57 -25 57 5
0 8 6 6 13 -1 6 -1 9 1 5 8 -14 23 -9 23 7 0 8 -5 15 -11 15 -5 0 -7 5 -4 10
4 6 11 8 16 5 5 -4 9 1 9 9 0 9 -5 16 -11 16 -5 0 -7 5 -4 10 3 6 15 10 26 10
11 0 28 7 36 16 14 13 14 17 2 25 -11 7 -11 9 3 9 9 0 19 -4 23 -10z m-1649
-37 c-10 -10 -19 5 -10 18 6 11 8 11 12 0 2 -7 1 -15 -2 -18z m328 12 c3 -8 1
-15 -3 -15 -5 0 -11 7 -15 15 -3 8 -1 15 3 15 5 0 11 -7 15 -15z m136 -1 c27
-4 58 -29 55 -44 -2 -12 4 -20 19 -24 21 -5 35 -46 15 -46 -5 0 -9 6 -9 13 0
7 -8 13 -19 14 -10 1 -33 11 -52 22 l-34 21 33 -6 c17 -4 32 -4 32 0 0 9 -38
45 -43 40 -2 -2 -10 3 -18 13 -12 15 -12 16 1 8 8 -6 17 -10 20 -11z m-83 -21
c-8 -7 -37 9 -31 19 3 5 12 4 20 -3 8 -6 13 -14 11 -16z m1154 -16 c-6 -8 -7
-17 -3 -21 4 -4 0 -6 -8 -4 -11 2 -14 -4 -12 -21 2 -17 -2 -22 -13 -17 -11 4
-14 2 -9 -6 13 -21 14 -60 1 -55 -7 2 -11 15 -9 28 2 19 0 21 -8 9 -8 -12 -10
-9 -10 13 0 15 4 27 8 27 4 0 16 14 25 30 10 17 25 30 34 30 12 0 13 -3 4 -13z
m-1128 -13 c-2 -6 -15 -9 -29 -6 -18 3 -22 7 -13 13 19 11 48 7 42 -7z m190 9
c-7 -2 -21 -2 -30 0 -10 3 -4 5 12 5 17 0 24 -2 18 -5z m-143 -32 c0 -6 -9 -9
-20 -8 -11 1 -20 5 -20 9 0 4 9 8 20 8 11 0 20 -4 20 -9z m-47 -21 c3 -11 0
-23 -5 -27 -6 -3 -8 -1 -4 5 3 6 2 13 -4 17 -6 4 -8 11 -5 16 9 13 12 11 18
-11z m57 -20 c-6 -12 -14 -19 -17 -17 -2 3 1 15 7 27 6 12 14 19 17 17 2 -3
-1 -15 -7 -27z m165 20 c3 -5 -1 -10 -9 -10 -8 0 -18 5 -21 10 -3 6 1 10 9 10
8 0 18 -4 21 -10z m-185 -10 c0 -5 -4 -10 -10 -10 -5 0 -10 5 -10 10 0 6 5 10
10 10 6 0 10 -4 10 -10z m62 -9 c-11 -6 -8 -10 10 -14 16 -4 23 -14 24 -31 2
-23 -1 -25 -25 -20 -32 8 -40 14 -18 14 10 0 17 5 17 10 0 6 -9 10 -20 10 -22
0 -28 25 -7 33 20 9 33 7 19 -2z m945 3 c-3 -3 3 -21 14 -40 24 -43 18 -79
-27 -166 -19 -35 -18 -48 4 -48 14 0 14 2 3 9 -12 8 -12 12 -2 25 15 18 41 21
41 6 0 -5 -8 -10 -17 -11 -11 0 -13 -3 -5 -6 6 -2 12 -11 12 -19 0 -11 -19
-14 -90 -14 -69 0 -90 3 -90 13 0 16 27 41 53 50 10 4 17 14 15 23 -2 9 3 19
11 22 9 3 11 -1 6 -17 -3 -11 -2 -21 3 -21 8 0 9 33 4 63 -1 4 -17 -3 -35 -17
-35 -27 -47 -31 -47 -18 0 4 13 16 30 25 16 10 29 21 29 25 -1 4 -1 18 0 32 1
20 3 22 11 10 9 -13 14 -7 11 13 0 4 6 7 14 7 9 0 12 6 8 16 -5 13 -2 15 15
10 17 -6 19 -3 15 14 -3 12 0 20 8 20 7 0 10 -3 6 -6z m-723 -16 c-3 -4 2 -8
10 -8 17 0 22 -15 7 -24 -4 -3 -18 5 -31 19 -22 23 -22 24 -2 22 11 0 18 -5
16 -9z m-29 -18 c3 -5 1 -10 -4 -10 -6 0 -11 5 -11 10 0 6 2 10 4 10 3 0 8 -4
11 -10z m325 6 c0 -2 -8 -10 -17 -17 -16 -13 -17 -12 -4 4 13 16 21 21 21 13z
m787 -26 c2 -13 -3 -20 -13 -20 -11 0 -14 5 -10 16 3 9 6 21 6 26 0 18 14 -1
17 -22z m-897 10 c-13 -8 -11 -11 8 -16 12 -4 22 -11 22 -18 0 -6 7 -2 15 8
15 19 15 19 15 -1 0 -13 8 -24 20 -28 11 -4 18 -11 14 -16 -3 -5 -10 -7 -15
-3 -20 12 -59 11 -70 -2 -11 -14 -1 -19 25 -15 4 1 14 -4 22 -10 10 -8 14 -8
14 -1 0 15 30 3 55 -21 20 -19 20 -20 -8 -15 -21 4 -27 2 -23 -8 9 -24 -31
-16 -51 10 -11 13 -29 26 -41 28 -21 3 -21 4 -6 33 14 28 14 30 -7 46 -13 9
-30 14 -38 11 -11 -3 -13 -2 -6 6 9 9 35 18 60 21 6 0 3 -4 -5 -9z m268 -18
c2 -7 -2 -12 -9 -12 -8 0 -7 -6 5 -19 20 -22 15 -26 -58 -61 -35 -17 -51 -20
-54 -12 -2 7 -7 10 -12 7 -10 -6 -33 22 -26 33 2 4 18 7 35 6 17 -1 30 1 29 5
0 3 0 14 1 24 1 15 4 16 22 7 27 -15 36 -5 16 18 -16 18 -15 18 15 17 17 -1
34 -7 36 -13z m-781 -28 c1 -25 0 -26 -4 -4 -3 14 -10 29 -17 33 -7 6 -6 7 4
4 8 -2 16 -16 17 -33z m-112 7 c-19 -8 -19 -8 0 -19 11 -6 17 -14 13 -18 -4
-4 -14 -1 -23 6 -8 7 -21 10 -28 7 -7 -3 -13 2 -13 12 0 11 10 16 36 18 25 1
29 -1 15 -6z m75 -7 c0 -8 -4 -12 -10 -9 -5 3 -10 10 -10 16 0 5 5 9 10 9 6 0
10 -7 10 -16z m250 1 c10 -13 11 -18 1 -28 -10 -9 -11 -8 -6 4 9 25 -16 35
-31 14 -8 -10 -17 -15 -21 -11 -8 7 23 36 38 36 3 0 12 -7 19 -15z m188 -41
c5 3 22 1 38 -4 22 -6 24 -9 9 -10 -11 -1 -26 -2 -32 -1 -7 1 -13 -2 -13 -7 0
-6 -7 -12 -14 -15 -10 -4 -13 -1 -9 9 3 7 1 14 -5 14 -6 0 -12 -5 -14 -11 -3
-8 -9 -6 -20 4 -8 9 -18 14 -22 12 -3 -3 -2 0 3 7 8 8 14 8 26 -2 8 -7 15 -9
15 -4 0 5 -13 18 -29 29 -16 10 -27 23 -25 27 3 5 23 -5 45 -22 21 -17 42 -29
47 -26z m-13 38 c-3 -3 -11 0 -18 7 -9 10 -8 11 6 5 10 -3 15 -9 12 -12z m270
8 c29 -11 26 -31 -5 -25 -22 4 -60 23 -60 30 0 8 38 5 65 -5z m-210 -18 c-3
-3 -11 0 -18 7 -9 10 -8 11 6 5 10 -3 15 -9 12 -12z m-768 -18 c-3 -3 -12 -4
-19 -1 -8 3 -5 6 6 6 11 1 17 -2 13 -5z m603 2 c0 -2 -7 -9 -15 -16 -13 -11
-14 -10 -9 4 5 14 24 23 24 12z m183 -52 c-4 -11 -1 -15 12 -12 10 2 20 -3 22
-10 6 -15 -32 -11 -50 7 -9 9 -9 14 3 21 20 13 20 13 13 -6z m60 -8 c4 -10 1
-13 -9 -9 -7 3 -14 9 -14 14 0 14 17 10 23 -5z m287 -6 c-8 -5 -19 -10 -25
-10 -5 0 -3 5 5 10 8 5 20 10 25 10 6 0 3 -5 -5 -10z m140 0 c0 -5 -4 -10 -10
-10 -5 0 -10 5 -10 10 0 6 5 10 10 10 6 0 10 -4 10 -10z m144 -7 c6 -15 4 -15
-18 -7 -20 8 -21 21 -1 21 8 0 16 -6 19 -14z m-1224 3 c0 -11 -19 -15 -25 -6
-3 5 1 10 9 10 9 0 16 -2 16 -4z m890 -6 c0 -5 -4 -10 -10 -10 -5 0 -10 5 -10
10 0 6 5 10 10 10 6 0 10 -4 10 -10z m-53 -22 c-2 -7 -14 -12 -26 -11 -11 2
-21 -2 -21 -8 0 -6 -7 -4 -15 5 -23 22 -19 26 26 26 28 0 39 -4 36 -12z
m-1104 -15 c-18 -7 -16 -21 5 -26 9 -3 2 -5 -15 -6 -18 0 -33 1 -33 3 0 10 32
36 43 35 9 0 8 -2 0 -6z m187 -3 c0 -5 -5 -10 -11 -10 -5 0 -7 5 -4 10 3 6 8
10 11 10 2 0 4 -4 4 -10z m1090 0 c0 -5 -2 -10 -4 -10 -3 0 -8 5 -11 10 -3 6
-1 10 4 10 6 0 11 -4 11 -10z m-1160 -20 c0 -5 -7 -10 -16 -10 -8 0 -12 5 -9
10 3 6 10 10 16 10 5 0 9 -4 9 -10z m185 0 c3 -5 1 -10 -4 -10 -6 0 -11 5 -11
10 0 6 2 10 4 10 3 0 8 -4 11 -10z m915 0 c0 -5 -12 -10 -27 -9 -25 0 -26 1
-8 9 27 12 35 12 35 0z m-1273 -6 c-3 -3 -12 -4 -19 -1 -8 3 -5 6 6 6 11 1 17
-2 13 -5z m210 0 c-3 -3 -12 -4 -19 -1 -8 3 -5 6 6 6 11 1 17 -2 13 -5z m116
-1 c-7 -2 -21 -2 -30 0 -10 3 -4 5 12 5 17 0 24 -2 18 -5z"/>
<path d="M148 1523 c6 -2 18 -2 25 0 6 3 1 5 -13 5 -14 0 -19 -2 -12 -5z"/>
<path d="M190 1526 c0 -2 7 -6 15 -10 8 -3 15 -1 15 4 0 6 -7 10 -15 10 -8 0
-15 -2 -15 -4z"/>
<path d="M266 1521 c-4 -5 3 -7 14 -4 23 6 26 13 6 13 -8 0 -17 -4 -20 -9z"/>
<path d="M695 1523 c11 -3 24 -10 28 -17 6 -8 10 -7 14 3 4 10 10 5 18 -15
l12 -29 8 27 c4 16 11 26 15 23 5 -3 11 -1 15 5 4 6 -18 10 -62 9 -37 -1 -59
-4 -48 -6z"/>
<path d="M820 1520 c0 -5 0 -13 0 -17 1 -5 12 -6 27 -5 16 3 23 0 19 -7 -4 -6
-17 -11 -29 -11 -12 0 -28 -9 -34 -20 -11 -16 -9 -23 13 -47 16 -17 23 -35 20
-47 -3 -13 -2 -16 5 -9 7 7 22 8 45 2 25 -8 40 -6 61 6 19 10 22 14 9 13 -10
-2 -21 3 -23 10 -3 7 4 12 15 12 29 0 53 11 47 21 -3 4 -12 6 -20 3 -11 -5
-14 1 -13 20 2 25 4 26 15 10 8 -11 13 -13 13 -5 0 7 6 11 12 9 7 -3 13 -13
13 -23 0 -10 6 -20 13 -22 8 -3 10 1 5 13 -5 13 -3 16 10 11 13 -5 17 -1 17
16 0 13 5 28 12 35 6 6 9 14 5 18 -10 10 -27 -6 -27 -27 0 -14 -6 -19 -17 -17
-10 2 -16 6 -13 10 3 3 -3 15 -13 26 -18 20 -18 21 10 25 15 2 -23 5 -84 6
-70 0 -113 -3 -113 -9z m120 -10 c0 -5 -7 -10 -15 -10 -8 0 -15 5 -15 10 0 6
7 10 15 10 8 0 15 -4 15 -10z m-32 -28 c2 -7 -2 -10 -12 -6 -9 3 -16 11 -16
16 0 13 23 5 28 -10z"/>
<path d="M1058 1523 c7 -3 16 -2 19 1 4 3 -2 6 -13 5 -11 0 -14 -3 -6 -6z"/>
<path d="M1108 1523 c12 -2 32 -2 45 0 12 2 2 4 -23 4 -25 0 -35 -2 -22 -4z"/>
<path d="M1280 1523 c19 -3 39 -9 45 -14 14 -14 25 -11 25 6 0 12 -12 15 -52
13 -41 -1 -45 -2 -18 -5z"/>
<path d="M1368 1523 c6 -2 18 -2 25 0 6 3 1 5 -13 5 -14 0 -19 -2 -12 -5z"/>
<path d="M1525 1519 c-11 -17 1 -21 15 -4 8 9 8 15 2 15 -6 0 -14 -5 -17 -11z"/>
<path d="M1250 1501 c0 -11 31 -24 39 -16 3 3 -1 10 -9 15 -19 12 -30 12 -30
1z"/>
<path d="M1785 1500 c4 -6 11 -8 16 -5 14 9 11 15 -7 15 -8 0 -12 -5 -9 -10z"/>
<path d="M1170 1490 c0 -5 5 -10 11 -10 5 0 7 5 4 10 -3 6 -8 10 -11 10 -2 0
-4 -4 -4 -10z"/>
<path d="M1093 1458 c3 -39 13 -58 30 -57 9 0 9 2 0 6 -18 7 -16 20 2 20 8 0
16 -6 19 -14 3 -7 14 -13 25 -13 11 0 23 -5 26 -10 4 -6 15 -8 25 -5 10 3 21
1 25 -5 3 -6 11 -7 17 -4 6 4 13 1 17 -5 9 -15 72 -21 94 -10 10 6 17 6 17 0
0 -5 -6 -12 -12 -14 -8 -3 -6 -6 5 -6 9 -1 17 -5 17 -11 0 -5 5 -10 11 -10 8
0 7 6 -2 17 -12 15 -12 16 4 10 10 -4 21 -7 23 -7 3 0 2 -4 -1 -10 -3 -5 0
-10 8 -10 8 0 17 -7 21 -15 3 -8 14 -15 25 -15 33 0 51 -11 51 -31 0 -23 -8
-24 -32 -2 -10 9 -18 12 -18 6 0 -5 9 -18 20 -28 11 -10 17 -22 14 -27 -8 -13
15 -38 31 -32 7 3 15 23 19 45 4 25 12 39 21 39 8 0 15 -6 15 -14 0 -8 11 -13
26 -13 15 0 30 -7 35 -14 5 -8 9 -11 9 -7 0 15 -156 165 -199 193 -78 49 -211
84 -211 55 0 -5 -12 -10 -26 -10 -23 0 -26 -3 -22 -25 6 -30 -1 -31 -29 -5
-16 14 -23 16 -27 7 -4 -7 -4 0 -1 14 3 19 0 29 -11 33 -26 10 -34 7 -28 -11
4 -13 0 -12 -15 5 l-21 24 3 -34z m152 -28 c3 -5 1 -10 -4 -10 -6 0 -11 5 -11
10 0 6 2 10 4 10 3 0 8 -4 11 -10z"/>
<path d="M1525 1480 c3 -5 10 -10 16 -10 5 0 9 5 9 10 0 6 -7 10 -16 10 -8 0
-12 -4 -9 -10z"/>
<path d="M715 1459 c-9 -14 -2 -20 14 -10 8 6 9 11 3 15 -6 3 -14 1 -17 -5z"/>
<path d="M1601 1454 c0 -11 3 -14 6 -6 3 7 2 16 -1 19 -3 4 -6 -2 -5 -13z"/>
<path d="M1538 1438 c12 -12 24 -19 28 -15 3 3 -1 13 -9 22 -9 8 -21 15 -29
15 -7 0 -4 -9 10 -22z"/>
<path d="M320 1426 c0 -9 7 -16 16 -16 9 0 14 5 12 12 -6 18 -28 21 -28 4z"/>
<path d="M1610 1408 c0 -16 5 -28 10 -28 13 0 13 20 0 40 -8 12 -10 9 -10 -12z"/>
<path d="M790 1400 c0 -5 5 -10 10 -10 6 0 10 5 10 10 0 6 -4 10 -10 10 -5 0
-10 -4 -10 -10z"/>
<path d="M722 1388 c3 -7 18 -15 34 -16 16 -2 34 -8 40 -13 8 -6 14 -4 18 6 4
12 -3 15 -34 15 -22 0 -40 5 -40 10 0 6 -5 10 -11 10 -6 0 -9 -6 -7 -12z"/>
<path d="M657 1366 c-12 -9 -14 -16 -8 -21 6 -3 11 -1 11 4 0 6 5 11 10 11 6
0 10 -8 10 -18 0 -22 37 -59 48 -47 4 4 1 10 -5 12 -7 3 -13 16 -13 29 0 15
-6 24 -16 24 -8 0 -12 5 -9 10 9 14 -7 12 -28 -4z"/>
<path d="M425 1330 c-3 -6 1 -7 9 -4 18 7 21 14 7 14 -6 0 -13 -4 -16 -10z"/>
<path d="M989 1328 c-9 -18 -4 -56 9 -65 22 -18 11 -16 -48 7 -27 11 -50 16
-50 11 0 -6 9 -12 19 -16 10 -3 29 -21 42 -40 24 -34 52 -45 64 -25 4 6 1 17
-5 25 -8 10 -9 15 -2 15 6 0 19 -11 30 -25 22 -28 52 -33 52 -10 0 8 -20 36
-45 62 -25 25 -45 50 -45 55 0 7 -18 12 -21 6z"/>
<path d="M1111 1282 c16 -26 31 -58 34 -72 5 -26 21 -47 30 -38 9 9 -34 111
-57 136 -36 37 -39 25 -7 -26z"/>
<path d="M750 1309 c0 -5 5 -7 10 -4 6 3 10 8 10 11 0 2 -4 4 -10 4 -5 0 -10
-5 -10 -11z"/>
<path d="M675 1301 c-3 -5 -1 -12 5 -16 5 -3 10 1 10 9 0 18 -6 21 -15 7z"/>
<path d="M382 1288 c2 -6 15 -18 29 -27 l24 -15 -24 27 c-26 29 -35 34 -29 15z"/>
<path d="M870 1280 c0 -5 5 -10 10 -10 6 0 10 5 10 10 0 6 -4 10 -10 10 -5 0
-10 -4 -10 -10z"/>
<path d="M805 1250 c-17 -8 -15 -9 10 -8 38 2 83 -27 91 -58 6 -25 20 -30 43
-15 24 15 4 41 -51 66 -58 27 -63 28 -93 15z"/>
<path d="M1450 1217 c0 -27 4 -37 16 -37 13 0 15 6 9 28 -11 45 -25 50 -25 9z"/>
<path d="M431 1214 c0 -11 3 -14 6 -6 3 7 2 16 -1 19 -3 4 -6 -2 -5 -13z"/>
<path d="M465 1210 c3 -5 8 -10 11 -10 2 0 4 5 4 10 0 6 -5 10 -11 10 -5 0 -7
-4 -4 -10z"/>
<path d="M507 1189 c7 -7 15 -10 18 -7 3 3 -2 9 -12 12 -14 6 -15 5 -6 -5z"/>
<path d="M1920 795 c0 -2 10 -10 23 -16 20 -11 21 -11 8 4 -13 16 -31 23 -31
12z"/>
<path d="M125 490 c3 -5 13 -10 21 -10 8 0 14 5 14 10 0 6 -9 10 -21 10 -11 0
-17 -4 -14 -10z"/>
<path d="M177 493 c-12 -12 -7 -22 8 -17 8 4 15 10 15 15 0 11 -14 12 -23 2z"/>
<path d="M292 346 c7 -8 15 -12 17 -11 5 6 -10 25 -20 25 -5 0 -4 -6 3 -14z"/>
<path d="M428 353 c7 -3 16 -2 19 1 4 3 -2 6 -13 5 -11 0 -14 -3 -6 -6z"/>
<path d="M224 298 c-11 -18 -12 -48 -2 -54 4 -3 8 -1 8 4 0 5 9 12 20 15 11 3
20 13 20 22 0 15 -1 15 -16 1 -21 -21 -27 -20 -21 4 6 23 2 26 -9 8z"/>
<path d="M308 304 c-4 -6 1 -19 12 -29 12 -10 20 -13 20 -7 0 7 -4 12 -9 12
-5 0 -11 8 -13 18 -2 11 -6 13 -10 6z"/>
<path d="M97 287 c-3 -9 -1 -19 4 -23 6 -4 8 -20 4 -40 -7 -38 -1 -44 14 -15
8 13 7 30 -2 57 -10 28 -15 33 -20 21z"/>
<path d="M125 180 c3 -5 8 -10 11 -10 2 0 4 5 4 10 0 6 -5 10 -11 10 -5 0 -7
-4 -4 -10z"/>
<path d="M660 820 c-13 -8 -12 -10 3 -10 9 0 17 5 17 10 0 12 -1 12 -20 0z"/>
<path d="M1890 390 c0 -5 5 -10 10 -10 6 0 10 5 10 10 0 6 -4 10 -10 10 -5 0
-10 -4 -10 -10z"/>
<path d="M1900 351 c0 -17 18 -21 24 -6 3 9 0 15 -9 15 -8 0 -15 -4 -15 -9z"/>
<path d="M1950 335 c0 -16 6 -25 16 -25 11 0 14 5 10 16 -3 9 -6 20 -6 25 0 5
-4 9 -10 9 -5 0 -10 -11 -10 -25z"/>
<path d="M1917 239 c7 -7 15 -10 18 -7 3 3 -2 9 -12 12 -14 6 -15 5 -6 -5z"/>
<path d="M1955 226 c-18 -13 -18 -14 8 -9 15 3 27 9 27 14 0 13 -13 11 -35 -5z"/>
<path d="M1822 206 c7 -8 15 -12 17 -11 5 6 -10 25 -20 25 -5 0 -4 -6 3 -14z"/>
<path d="M1980 185 c0 -5 5 -17 10 -25 5 -8 10 -10 10 -5 0 6 -5 17 -10 25 -5
8 -10 11 -10 5z"/>
<path d="M1800 171 c0 -5 5 -13 10 -16 6 -3 10 -2 10 4 0 5 -4 13 -10 16 -5 3
-10 2 -10 -4z"/>
<path d="M2010 176 c0 -2 7 -9 15 -16 13 -11 14 -10 9 4 -5 14 -24 23 -24 12z"/>
<path d="M1620 237 c0 -9 5 -17 10 -17 6 0 11 -12 11 -27 2 -24 2 -25 6 -6 2
13 -3 33 -11 45 -13 18 -16 19 -16 5z"/>
<path d="M1657 219 c4 -13 8 -18 11 -10 2 7 -1 18 -6 23 -8 8 -9 4 -5 -13z"/>
<path d="M1590 143 c0 -7 -9 -13 -20 -13 -25 0 -26 -16 -1 -23 29 -7 45 7 32
29 -6 11 -11 13 -11 7z"/>
<path d="M1576 1586 c3 -9 13 -16 22 -16 8 0 13 1 11 3 -2 1 -12 9 -22 16 -15
12 -17 12 -11 -3z"/>
<path d="M2090 1446 c0 -2 7 -7 16 -10 8 -3 12 -2 9 4 -6 10 -25 14 -25 6z"/>
<path d="M2101 1390 c-9 -5 -11 -15 -6 -26 6 -17 8 -17 16 5 11 28 9 33 -10
21z"/>
<path d="M2128 1363 c7 -3 16 -2 19 1 4 3 -2 6 -13 5 -11 0 -14 -3 -6 -6z"/>
<path d="M2090 856 c0 -8 4 -17 9 -20 5 -4 7 3 4 14 -6 23 -13 26 -13 6z"/>
<path d="M5 620 c-3 -5 -1 -10 4 -10 6 0 11 -9 11 -20 0 -22 7 -25 30 -10 12
7 12 12 -4 29 -21 23 -32 26 -41 11z"/>
<path d="M20 540 c0 -5 5 -10 10 -10 6 0 10 5 10 10 0 6 -4 10 -10 10 -5 0
-10 -4 -10 -10z"/>
<path d="M10 411 c0 -5 5 -13 10 -16 6 -3 10 -2 10 4 0 5 -4 13 -10 16 -5 3
-10 2 -10 -4z"/>
<path d="M2090 378 c0 -19 2 -20 10 -8 8 13 10 12 10 -2 0 -10 7 -18 16 -18 8
0 13 -4 9 -9 -3 -5 -1 -12 5 -16 6 -4 10 5 10 19 0 16 -6 26 -15 26 -8 0 -15
7 -15 15 0 8 -7 15 -15 15 -9 0 -15 -9 -15 -22z"/>
<path d="M0 378 c0 -9 5 -20 10 -23 13 -8 13 5 0 25 -8 13 -10 13 -10 -2z"/>
<path d="M2090 331 c0 -10 7 -21 15 -25 16 -6 19 3 9 28 -8 22 -24 20 -24 -3z"/>
<path d="M2125 300 c-3 -5 -12 -7 -20 -3 -12 4 -15 -5 -15 -48 1 -51 2 -53 16
-34 8 11 22 19 30 17 8 -2 14 2 14 8 0 5 -3 9 -7 9 -19 -3 -33 2 -33 12 0 6 7
9 14 6 10 -4 13 -1 9 9 -3 7 0 14 6 14 6 0 11 5 11 10 0 13 -17 13 -25 0z"/>
<path d="M2128 213 c7 -3 16 -2 19 1 4 3 -2 6 -13 5 -11 0 -14 -3 -6 -6z"/>
<path d="M2135 190 c-3 -5 -1 -10 4 -10 6 0 11 5 11 10 0 6 -2 10 -4 10 -3 0
-8 -4 -11 -10z"/>
<path d="M0 150 c0 -5 5 -10 10 -10 6 0 10 5 10 10 0 6 -4 10 -10 10 -5 0 -10
-4 -10 -10z"/>
<path d="M2090 112 c0 -24 7 -43 18 -53 31 -26 38 -28 38 -9 0 10 -6 16 -13
13 -7 -3 -13 2 -13 11 0 9 -4 16 -10 16 -5 0 -9 11 -8 25 3 33 14 32 32 -2
l15 -28 1 28 c0 16 -4 26 -9 22 -5 -3 -12 -1 -16 5 -15 25 -35 9 -35 -28z"/>
<path d="M86 45 c4 -8 10 -12 15 -9 5 3 9 -3 9 -12 0 -10 3 -14 7 -11 3 4 12
2 20 -4 16 -14 16 -8 1 26 -12 28 -62 38 -52 10z"/>
<path d="M162 40 c0 -14 2 -19 5 -12 2 6 2 18 0 25 -3 6 -5 1 -5 -13z"/>
<path d="M193 53 c9 -2 17 -12 17 -21 0 -15 -2 -15 -11 -2 -9 13 -10 13 -6 0
2 -8 21 -18 43 -22 48 -8 1224 -9 1224 -1 0 4 -7 15 -17 25 -9 10 -12 18 -6
18 6 0 18 -10 27 -23 13 -16 28 -23 57 -23 31 -1 37 1 29 11 -8 9 -6 17 5 29
15 15 -41 16 -682 15 -384 -1 -690 -3 -680 -6z m87 -14 c0 -7 9 -9 21 -6 13 3
19 1 16 -6 -2 -7 -16 -13 -30 -15 -22 -3 -27 1 -27 17 0 12 5 21 10 21 6 0 10
-5 10 -11z m80 1 c0 -5 -4 -10 -9 -10 -6 0 -13 5 -16 10 -3 6 1 10 9 10 9 0
16 -4 16 -10z m75 -2 c28 -12 33 -28 10 -28 -8 0 -15 5 -15 10 0 6 -9 10 -19
10 -11 0 -23 5 -26 10 -8 14 18 13 50 -2z m105 -21 c0 -5 -4 -5 -10 -2 -5 3
-10 14 -10 23 0 15 2 15 10 2 5 -8 10 -19 10 -23z m850 24 c0 -17 -18 -21 -24
-6 -3 9 0 15 9 15 8 0 15 -4 15 -9z m110 -1 c0 -5 -4 -10 -10 -10 -5 0 -10 5
-10 10 0 6 5 10 10 10 6 0 10 -4 10 -10z m35 0 c-3 -5 -10 -10 -16 -10 -5 0
-9 5 -9 10 0 6 7 10 16 10 8 0 12 -4 9 -10z"/>
<path d="M1621 56 c10 -11 69 -16 69 -6 0 5 -16 10 -37 10 -20 0 -34 -2 -32
-4z"/>
<path d="M1591 31 c-7 -5 -10 -14 -6 -21 6 -9 10 -9 16 1 8 12 10 12 18 1 7
-11 9 -11 14 1 3 9 -1 18 -9 21 -19 7 -16 8 -33 -3z"/>
<path d="M1650 11 c0 -6 9 -9 20 -8 11 1 20 5 20 9 0 4 -9 8 -20 8 -11 0 -20
-4 -20 -9z"/>
<path d="M1710 10 c0 -5 7 -10 16 -10 8 0 12 5 9 10 -3 6 -10 10 -16 10 -5 0
-9 -4 -9 -10z"/>
</g>
</svg>
