<?xml version="1.0" standalone="no"?>
<!DOCTYPE svg PUBLIC "-//W3C//DTD SVG 20010904//EN"
 "http://www.w3.org/TR/2001/REC-SVG-20010904/DTD/svg10.dtd">
<svg version="1.0" xmlns="http://www.w3.org/2000/svg"
 width="152.000000pt" height="148.000000pt" viewBox="0 0 152.000000 148.000000"
 preserveAspectRatio="xMidYMid meet">

<g transform="translate(0.000000,148.000000) scale(0.100000,-0.100000)"
fill="#000000" stroke="none">
<path d="M120 735 l0 -625 645 0 645 0 0 625 0 625 -645 0 -645 0 0 -625z
m956 379 c40 -39 20 -95 -38 -109 -21 -5 -33 -1 -52 19 -32 31 -33 69 -4 96
29 27 64 25 94 -6z m-353 -91 c14 -43 44 -141 67 -218 23 -77 53 -178 67 -225
14 -47 29 -97 34 -112 l8 -28 -69 0 -68 0 -23 85 -24 85 -91 0 -92 0 -23 -85
-24 -85 -63 0 c-50 0 -63 3 -59 14 3 7 29 94 57 192 28 99 63 217 78 264 14
47 27 109 30 138 l4 52 83 0 83 0 25 -77z m367 -333 l0 -250 -65 0 -65 0 0
250 0 250 65 0 65 0 0 -250z"/>
<path d="M616 959 c-9 -25 -56 -217 -56 -228 0 -7 26 -11 66 -11 57 0 65 2 60
18 -2 9 -17 64 -32 122 -29 114 -31 120 -38 99z"/>
</g>
</svg>
