<?xml version="1.0" standalone="no"?>
<!DOCTYPE svg PUBLIC "-//W3C//DTD SVG 20010904//EN"
 "http://www.w3.org/TR/2001/REC-SVG-20010904/DTD/svg10.dtd">
<svg version="1.0" xmlns="http://www.w3.org/2000/svg"
 width="420.000000pt" height="151.000000pt" viewBox="0 0 420.000000 151.000000"
 preserveAspectRatio="xMidYMid meet">

<g transform="translate(0.000000,151.000000) scale(0.100000,-0.100000)"
fill="#000000" stroke="none">
<path d="M1708 1384 c-26 -13 -49 -28 -53 -34 -11 -18 4 -47 31 -59 18 -8 24
-17 20 -27 -11 -29 13 -44 58 -38 73 10 86 14 86 30 0 15 -5 18 -52 28 -26 6
-27 8 -21 54 8 67 -8 77 -69 46z"/>
<path d="M2355 1383 c-27 -14 -75 -32 -105 -40 -30 -8 -74 -25 -97 -38 -23
-13 -58 -28 -77 -35 -34 -11 -63 -36 -54 -45 3 -3 40 -7 84 -10 69 -5 88 -2
142 20 74 30 72 30 72 5 0 -30 31 -42 64 -24 16 8 50 14 76 14 60 0 87 24 45
40 -14 5 -32 10 -39 10 -28 0 -40 29 -29 70 7 27 7 42 -1 50 -14 14 -25 12
-81 -17z"/>
<path d="M3020 1390 c-19 -11 -71 -31 -115 -45 -104 -34 -230 -96 -230 -114 0
-22 145 -27 197 -6 47 19 61 14 25 -10 -30 -19 -73 -112 -82 -178 -8 -50 -32
-77 -69 -77 -15 0 -17 -3 -9 -11 11 -11 21 -10 191 17 37 6 42 21 9 33 -47 18
-66 72 -39 113 22 33 52 57 119 93 42 22 60 26 91 22 25 -5 45 -2 57 7 24 17
12 34 -31 42 -45 8 -59 34 -44 79 19 58 -6 70 -70 35z"/>
<path d="M1051 1379 c-17 -10 -31 -25 -31 -32 0 -19 21 -37 45 -37 29 0 45 19
45 51 0 35 -20 42 -59 18z"/>
<path d="M391 1376 c-9 -11 -10 -20 -1 -36 13 -24 38 -23 53 1 23 37 -25 68
-52 35z"/>
<path d="M1528 1318 c-54 -23 -61 -45 -27 -79 17 -17 29 -20 56 -16 62 10 88
51 63 98 -13 24 -33 24 -92 -3z"/>
<path d="M872 1314 c-26 -18 -28 -37 -6 -58 22 -22 60 -20 78 5 34 49 -21 89
-72 53z"/>
<path d="M223 1304 c-15 -39 38 -67 60 -32 8 12 7 21 -2 32 -17 21 -50 20 -58
0z"/>
<path d="M451 1271 c-7 -13 -6 -23 3 -36 17 -24 50 -15 54 14 6 39 -39 56 -57
22z"/>
<path d="M1092 1278 c-29 -29 4 -60 55 -50 26 5 41 28 27 42 -17 15 -69 21
-82 8z"/>
<path d="M753 1255 c-7 -19 13 -36 37 -32 8 1 15 11 15 22 0 26 -42 34 -52 10z"/>
<path d="M1398 1259 c-26 -15 -22 -26 14 -38 26 -9 35 -8 46 3 33 33 -16 61
-60 35z"/>
<path d="M116 1251 c-3 -5 1 -14 8 -20 16 -13 32 2 21 19 -8 12 -22 13 -29 1z"/>
<path d="M2247 1216 c-32 -26 -73 -115 -82 -179 -6 -35 -14 -52 -32 -64 -13
-9 -20 -19 -16 -23 9 -8 158 11 169 23 4 4 -4 20 -18 35 -52 55 -45 92 31 158
30 26 34 34 23 47 -21 24 -46 26 -75 3z"/>
<path d="M1578 1196 c-8 -7 -22 -32 -33 -56 -19 -42 -19 -42 0 -57 18 -12 22
-12 38 9 9 13 26 33 37 46 31 36 33 42 20 57 -16 19 -44 19 -62 1z"/>
<path d="M916 1168 c-9 -12 -16 -33 -16 -45 0 -33 34 -30 59 6 25 35 26 47 5
55 -25 10 -32 7 -48 -16z"/>
<path d="M262 1171 c-18 -11 -12 -41 10 -55 14 -8 22 -7 35 7 29 29 -10 71
-45 48z"/>
<path d="M3344 1128 c-12 -5 -32 -27 -45 -49 -20 -33 -28 -39 -49 -34 -67 14
-141 17 -168 6 -30 -13 -59 -62 -56 -97 1 -23 48 -106 68 -124 10 -8 33 -7 87
5 41 8 76 15 78 15 2 0 1 -15 -2 -32 -8 -55 10 -78 58 -78 46 0 66 -16 82 -65
11 -35 46 -44 78 -21 15 11 19 24 17 64 -4 92 46 71 103 -42 30 -60 33 -128 8
-183 -53 -117 -119 -170 -213 -174 -72 -3 -90 -7 -90 -24 0 -21 50 -51 105
-63 128 -28 186 -43 265 -70 97 -34 185 -68 216 -83 36 -19 64 -3 64 36 0 40
-14 50 -88 66 -50 10 -68 22 -106 67 -26 30 -32 155 -11 206 20 47 19 77 -4
145 -39 120 -49 152 -43 146 4 -4 66 -64 139 -133 l131 -126 -25 -33 c-14 -18
-23 -39 -20 -47 11 -27 193 -104 209 -88 6 6 12 38 13 73 4 83 -37 209 -85
264 -9 11 -42 63 -73 116 -78 133 -136 179 -342 269 -22 9 -60 27 -85 38 -135
63 -172 72 -216 50z m412 -247 c-6 -9 -46 -22 -46 -15 0 3 10 9 23 14 29 11
29 11 23 1z"/>
<path d="M1522 1048 c-7 -7 -12 -22 -12 -34 0 -12 -7 -27 -15 -34 -30 -25 -16
-33 47 -26 56 7 77 17 78 37 0 13 -58 69 -72 69 -8 0 -19 -5 -26 -12z"/>
<path d="M875 1024 c-19 -20 -29 -54 -17 -66 13 -13 79 1 86 19 14 37 -41 75
-69 47z"/>
<path d="M219 1004 c-15 -19 -2 -47 26 -52 25 -5 38 13 31 42 -7 30 -36 35
-57 10z"/>
</g>
</svg>
