<?xml version="1.0" standalone="no"?>
<!DOCTYPE svg PUBLIC "-//W3C//DTD SVG 20010904//EN"
 "http://www.w3.org/TR/2001/REC-SVG-20010904/DTD/svg10.dtd">
<svg version="1.0" xmlns="http://www.w3.org/2000/svg"
 width="148.000000pt" height="148.000000pt" viewBox="0 0 148.000000 148.000000"
 preserveAspectRatio="xMidYMid meet">

<g transform="translate(0.000000,148.000000) scale(0.100000,-0.100000)"
fill="#000000" stroke="none">
<path d="M0 740 l0 -740 740 0 740 0 0 740 c0 487 -3 740 -10 740 -7 0 -10
-252 -10 -735 l0 -735 -720 0 -720 0 0 735 c0 483 -3 735 -10 735 -7 0 -10
-253 -10 -740z"/>
<path d="M70 910 l0 -570 480 0 c467 0 480 1 480 19 0 11 15 34 32 52 l33 32
-105 -9 c-126 -11 -224 -9 -265 6 -25 8 -19 9 33 5 39 -3 111 3 187 15 99 16
133 18 171 10 78 -18 69 1 -26 57 -25 14 -62 37 -84 50 -44 28 -60 28 -206 -6
-114 -27 -175 -29 -256 -7 -81 21 -123 20 -184 -4 -28 -11 -67 -20 -88 -19
-35 0 -34 1 23 19 33 9 84 26 113 37 l53 19 -33 24 c-18 14 -41 30 -53 37 -12
7 -14 12 -6 13 7 0 43 -20 80 -44 36 -24 75 -46 87 -50 50 -15 214 -5 214 14
0 4 -17 19 -37 33 -21 14 -57 43 -80 65 -23 22 -53 48 -66 57 -24 15 -26 15
-51 -9 -42 -43 -79 -28 -39 16 15 17 15 18 -5 18 -51 0 -121 23 -156 52 -49
41 -39 47 15 9 43 -30 57 -35 91 -32 15 1 15 5 6 32 -6 16 -8 32 -6 35 11 10
38 -10 50 -37 8 -18 23 -32 38 -35 45 -9 86 -31 133 -73 26 -22 76 -56 112
-76 60 -34 67 -35 104 -25 46 12 51 28 23 75 -10 17 -24 53 -32 80 -15 54 -26
68 -50 59 -8 -3 -11 -2 -7 2 4 4 -35 29 -87 54 -71 36 -111 49 -161 54 -37 4
-79 14 -93 23 -38 23 -82 65 -82 77 0 5 10 0 23 -11 44 -41 92 -63 137 -64 25
0 77 -9 115 -20 39 -11 82 -23 98 -26 15 -3 27 -9 27 -14 0 -5 7 -5 17 -2 11
4 14 3 9 -5 -5 -8 -2 -10 8 -6 9 3 16 10 16 16 0 5 -4 7 -9 4 -5 -3 -12 1 -15
10 -3 8 -2 12 4 9 6 -3 10 -4 10 -1 0 3 -12 12 -27 20 -39 20 -76 54 -110 103
-17 23 -34 39 -38 35 -3 -4 -5 0 -3 8 2 12 -7 14 -52 12 -44 -3 -65 1 -102 21
-26 14 -44 27 -41 30 3 3 16 -1 30 -10 34 -22 97 -32 120 -19 17 9 18 16 11
44 -5 20 -13 30 -20 26 -7 -4 -8 -3 -4 4 4 7 -1 28 -10 49 -13 27 -15 38 -6
41 7 2 15 21 18 43 4 21 11 39 16 39 12 0 1 -69 -14 -87 -11 -13 3 -43 64
-141 22 -34 44 -60 49 -56 5 3 9 0 9 -7 0 -11 75 -89 86 -89 9 0 30 24 37 43
3 9 2 17 -3 17 -6 0 -10 5 -10 11 0 5 5 7 10 4 6 -3 10 -2 10 4 0 5 -17 18
-37 28 -77 38 -123 146 -89 212 9 17 21 29 27 26 5 -4 3 -13 -6 -21 -19 -19
-19 -86 -1 -122 28 -54 106 -103 106 -68 0 9 4 16 8 16 5 0 13 10 19 23 8 17
7 30 -4 51 -15 28 -14 29 9 23 20 -5 26 -1 36 26 7 18 18 41 24 51 9 16 6 23
-16 39 -24 17 -38 68 -18 67 14 -1 42 -27 42 -41 0 -23 17 4 23 39 l7 32 -445
0 -445 0 0 -570z"/>
<path d="M970 1463 c0 -11 3 -14 8 -7 4 6 14 14 22 17 10 4 8 6 -7 6 -16 1
-23 -5 -23 -16z"/>
<path d="M1032 1455 c-10 -21 -26 -30 -53 -27 -5 1 -39 -96 -43 -123 -1 -5 -5
-16 -9 -22 -10 -17 -6 -16 29 1 15 8 32 12 38 9 6 -4 4 -9 -4 -11 -8 -3 -17
-8 -20 -11 -3 -3 -14 -11 -25 -17 -21 -11 -57 -74 -62 -109 -13 -89 -9 -187
13 -277 32 -136 60 -181 142 -232 50 -31 58 -23 50 49 -5 43 -26 75 -48 75 -7
0 -10 6 -7 14 3 8 -3 26 -14 40 -11 14 -16 26 -11 26 15 0 92 -90 92 -107 0
-9 6 -13 15 -10 17 7 32 -12 17 -22 -5 -3 -10 -31 -11 -62 l0 -55 52 -27 52
-27 8 55 c11 79 -4 121 -68 190 -30 33 -55 63 -55 67 0 5 -5 8 -11 8 -5 0 -7
-5 -3 -12 4 -7 3 -8 -4 -4 -6 4 -9 13 -6 20 7 19 -20 37 -61 40 -39 4 -61 16
-27 16 11 0 24 5 27 10 4 6 11 8 16 5 5 -3 -1 16 -13 42 -24 53 -31 183 -12
217 9 14 11 4 11 -50 0 -44 6 -82 17 -104 9 -19 14 -27 11 -17 -3 11 -1 16 6
11 6 -3 8 -16 5 -28 -4 -16 2 -13 25 14 33 40 39 23 8 -26 -11 -19 -16 -34
-10 -34 6 0 11 -7 11 -14 0 -8 37 -54 82 -101 58 -60 88 -85 100 -81 20 5 23
-5 8 -20 -8 -8 -7 -20 0 -39 6 -16 10 -77 9 -136 -1 -104 0 -109 31 -163 25
-44 37 -56 56 -56 l24 0 0 213 0 213 -36 35 c-44 41 -124 148 -124 165 0 9
-12 11 -37 8 l-38 -5 26 15 c26 15 27 17 16 58 -7 24 -11 76 -11 116 2 72 2
72 -25 72 -15 0 -36 7 -47 15 -18 14 -17 15 11 9 17 -4 32 -7 35 -7 26 -4 49
19 61 61 16 58 13 86 -14 135 l-21 37 -81 0 c-78 0 -82 -1 -93 -25z m98 -396
c0 -6 -4 -7 -10 -4 -5 3 -10 11 -10 16 0 6 5 7 10 4 6 -3 10 -11 10 -16z"/>
<path d="M1230 1476 c0 -2 7 -17 15 -32 l15 -29 0 33 c0 22 -5 32 -15 32 -8 0
-15 -2 -15 -4z"/>
<path d="M1285 1433 c5 -32 -1 -83 -15 -153 -24 -115 -23 -170 7 -235 16 -36
82 -135 89 -135 2 0 13 18 24 40 17 34 20 58 20 174 0 125 -2 139 -29 208 -38
95 -50 153 -14 68 l27 -65 8 40 c4 22 7 55 7 73 l1 32 -65 0 -66 0 6 -47z"/>
<path d="M1401 884 c0 -11 3 -14 6 -6 3 7 2 16 -1 19 -3 4 -6 -2 -5 -13z"/>
<path d="M1076 394 c-9 -8 -21 -24 -26 -35 -10 -18 -6 -19 100 -19 60 0 110 4
110 8 0 14 -109 62 -140 62 -15 0 -36 -7 -44 -16z"/>
<path d="M70 196 c0 -122 11 -136 100 -136 52 0 60 2 60 19 0 14 -5 18 -18 14
-10 -2 -34 0 -53 4 l-34 9 -5 90 c-5 83 -7 89 -27 92 -22 3 -23 1 -23 -92z"/>
<path d="M252 196 c4 -108 16 -130 76 -140 48 -7 109 9 122 34 5 10 10 59 10
109 0 90 0 91 -25 91 -25 0 -25 -1 -25 -90 0 -78 -2 -91 -19 -100 -61 -32 -91
4 -91 112 0 77 0 78 -26 78 l-26 0 4 -94z"/>
<path d="M512 178 c3 -112 3 -113 27 -113 24 0 24 2 22 75 -3 88 7 85 39 -13
20 -62 24 -67 50 -67 27 0 30 5 57 82 l28 83 3 -83 c3 -74 5 -82 22 -82 19 0
20 7 20 116 l0 115 -37 -3 c-35 -3 -37 -5 -60 -73 -13 -38 -26 -77 -29 -85 -4
-9 -18 19 -34 70 l-28 85 -41 3 -42 3 3 -113z"/>
<path d="M840 198 c0 -51 -3 -103 -6 -115 -6 -20 -3 -23 25 -23 l31 0 0 115 0
115 -25 0 c-25 0 -25 -1 -25 -92z"/>
<path d="M964 267 c-20 -18 -28 -35 -31 -73 -9 -94 29 -137 119 -135 73 1 100
29 106 108 4 54 2 61 -26 91 -27 29 -36 32 -85 32 -44 0 -62 -5 -83 -23z m128
-24 c24 -22 25 -109 1 -135 -20 -22 -70 -23 -95 -1 -23 21 -25 99 -2 131 18
27 69 30 96 5z"/>
<path d="M1208 175 c-3 -113 -3 -115 19 -115 21 0 22 5 25 88 l3 87 39 -70
c50 -89 64 -105 93 -105 23 0 23 1 23 115 0 113 0 115 -22 115 -22 0 -23 -3
-20 -66 5 -91 -8 -99 -48 -27 -44 77 -59 93 -86 93 -22 0 -23 -3 -26 -115z"/>
</g>
</svg>
