<?xml version="1.0" standalone="no"?>
<!DOCTYPE svg PUBLIC "-//W3C//DTD SVG 20010904//EN"
 "http://www.w3.org/TR/2001/REC-SVG-20010904/DTD/svg10.dtd">
<svg version="1.0" xmlns="http://www.w3.org/2000/svg"
 width="438.000000pt" height="480.000000pt" viewBox="0 0 438.000000 480.000000"
 preserveAspectRatio="xMidYMid meet">

<g transform="translate(0.000000,480.000000) scale(0.100000,-0.100000)"
fill="#000000" stroke="none">
<path d="M2175 4662 c-38 -21 -155 -83 -260 -137 -104 -54 -246 -128 -315
-165 -69 -37 -218 -115 -333 -175 -156 -81 -208 -113 -212 -129 -4 -20 -12
-71 -69 -461 -73 -495 -99 -672 -116 -790 -11 -71 -36 -238 -55 -370 -19 -132
-49 -332 -65 -445 -17 -113 -42 -279 -55 -370 -13 -91 -38 -259 -55 -375 -17
-115 -44 -302 -61 -415 -16 -113 -41 -276 -54 -363 -30 -189 -30 -204 -7 -211
18 -6 578 -125 719 -153 45 -9 85 -14 88 -11 5 5 120 561 218 1055 23 117 46
213 51 213 4 0 72 -33 150 -74 138 -72 270 -140 631 -326 99 -51 212 -109 250
-130 39 -21 160 -84 270 -140 110 -57 254 -131 320 -165 66 -34 201 -104 300
-155 99 -51 231 -119 293 -152 62 -33 115 -58 116 -57 22 29 287 501 284 508
-1 5 -127 143 -278 307 -151 163 -311 336 -355 383 -44 48 -165 179 -269 292
-169 182 -253 272 -487 523 -120 130 -152 166 -148 171 3 2 112 34 244 70 329
91 318 87 326 116 8 28 39 174 109 513 l50 238 -33 42 c-17 22 -167 210 -331
416 -165 206 -353 443 -418 525 -265 334 -349 435 -361 435 -7 0 -43 -17 -82
-38z"/>
</g>
</svg>
