<?xml version="1.0" standalone="no"?>
<!DOCTYPE svg PUBLIC "-//W3C//DTD SVG 20010904//EN"
 "http://www.w3.org/TR/2001/REC-SVG-20010904/DTD/svg10.dtd">
<svg version="1.0" xmlns="http://www.w3.org/2000/svg"
 width="160.000000pt" height="148.000000pt" viewBox="0 0 160.000000 148.000000"
 preserveAspectRatio="xMidYMid meet">

<g transform="translate(0.000000,148.000000) scale(0.100000,-0.100000)"
fill="#000000" stroke="none">
<path d="M19 1435 c-19 -43 -19 -66 -17 -713 3 -620 4 -670 21 -695 l17 -27
760 0 760 0 17 27 c17 25 18 75 21 695 2 647 2 670 -17 713 l-20 45 -761 0
-761 0 -20 -45z m741 -202 l0 -108 -83 -48 c-136 -78 -137 -63 3 -145 l123
-72 115 68 c64 37 117 72 119 77 1 6 -40 34 -92 64 l-95 53 0 110 c0 60 3 107
8 105 59 -34 417 -240 445 -257 l37 -22 0 -280 c0 -219 -3 -279 -12 -276 -7 2
-50 23 -95 48 l-83 45 0 118 c0 65 -4 117 -9 117 -5 0 -62 -30 -125 -67 l-116
-67 0 -143 c0 -79 2 -143 4 -143 3 0 47 25 100 55 52 30 97 55 99 55 4 0 179
-99 185 -105 2 -1 -28 -20 -65 -42 -37 -22 -148 -86 -245 -142 l-178 -102
-152 89 c-84 49 -192 111 -240 138 -48 27 -86 53 -85 57 1 5 42 31 90 59 l87
51 92 -53 c51 -29 96 -55 101 -57 4 -2 7 61 7 141 l0 144 -113 66 c-63 36
-119 66 -125 66 -9 0 -12 -34 -12 -115 l0 -114 -85 -51 c-47 -27 -90 -50 -95
-50 -6 0 -10 106 -10 279 l0 279 243 140 c133 77 245 141 250 141 4 1 7 -47 7
-106z"/>
</g>
</svg>
